<?xml version="1.0" encoding="UTF-8"?>
<svg id="Lag_2" data-name="Lag 2" xmlns="http://www.w3.org/2000/svg" viewBox="0 0 141.73 51.02">
  <defs>
    <style>
      .cls-1 {
        fill: #00abcf;
      }
    </style>
  </defs>
  <path class="cls-1" d="M0,36.61C0,28.76,0,21.32,0,15.74.21,5.24,4.98.05,14.31.16c6.84-.36,13.27-.14,19,1.1l18.47,2.5c11.56,2.03,22.88,3.03,33.88,2.7,10.53-.64,20.94-1.27,31.19-1.9,8.29-.82,16.06-1.45,18.55-.2,4.84,1.35,6.66,5.61,6.27,11.99l.05,18.38c-.1,10.83-4.23,16.76-13.76,16.28l-41.55.03H13.22C5.05,50.66.6,45.94,0,36.61Z"/>
</svg>