<svg width="261" height="65" viewBox="0 0 261 65" fill="none" xmlns="http://www.w3.org/2000/svg">
<g clip-path="url(#clip0_498_1687)">
<path d="M0 46.6405C0 36.6428 0 27.1649 0 20.0565C0.386721 6.68043 9.17082 0.0611956 26.3523 0.198778C38.9484 -0.25983 50.7894 0.0306218 61.3414 1.60517L95.3544 4.78485C116.643 7.36835 137.489 8.65245 157.745 8.22441C177.137 7.41421 196.307 6.604 215.183 5.80908C230.449 4.76957 244.758 3.95936 249.343 5.5492C258.256 7.27662 261.608 12.7035 260.89 20.8208L260.982 44.2404C260.797 58.0292 253.192 65.5962 235.642 64.9848L159.127 65.0153H24.345C9.29973 64.5414 1.10492 58.5184 0 46.6405Z" fill="#00AACF"/>
</g>
<defs>
<clipPath id="clip0_498_1687">
<rect width="261" height="65" fill="white"/>
</clipPath>
</defs>
</svg>
