<?xml version="1.0" encoding="UTF-8"?>
<svg id="Favicon" xmlns="http://www.w3.org/2000/svg" viewBox="0 0 167.44 43.33">
  <defs>
    <style>
      .cls-1 {
        fill: #00acd1;
      }

      .cls-2 {
        fill: #fcf5e9;
      }
    </style>
  </defs>
  <rect class="cls-1" y=".45" width="41.5" height="41.5" rx="5.99" ry="5.99"/>
  <path class="cls-2" d="M28.65,31.05c2.1.68,4.22.65,6.37-.05l.02-21.84h-6.84l-7.37,8.12-7.33-8.14h-6.83l-.04,24.09c.01.17.19.25.59.19,1.67-.15,3.67-.9,6-2.25.52-.25.09-.17,1.63-.38s4.18.46,6.35,1.41c5.46,2.51,10.13,2.66,13.85-.06-3.37.91-6.35.2-9.14-1.26-5.01-2.57-8.68-2.62-12.92.16v-13.33s7.85,8.58,7.85,8.58l7.82-8.6v13.36Z"/>
  <g>
    <path class="cls-1" d="M46.18,26.17V3.82h4.5l8.37,11.1h-2.1l8.13-11.1h4.5v22.35h-4.65V8.95l1.86.42-8.61,11.1h-.6l-8.31-11.1,1.56-.42v17.22h-4.65Z"/>
    <path class="cls-1" d="M79.72,26.17V3.82h15.03v4.05h-10.38v5.07h9.78v4.05h-9.78v5.13h10.38v4.05h-15.03Z"/>
    <path class="cls-1" d="M107.59,26.17V7.88h-5.67V3.82h15.9v4.05h-5.58v18.3h-4.65Z"/>
    <path class="cls-1" d="M123.16,26.17l7.56-22.35h6.18l7.56,22.35h-5.07l-1.5-4.56h-8.19l-1.5,4.56h-5.04ZM130.99,17.56h5.61l-3.42-10.56h1.26l-3.45,10.56Z"/>
    <path class="cls-1" d="M152.95,26.17V3.82h4.65v18.3h9.45v4.05h-14.1Z"/>
  </g>
  <g>
    <path class="cls-1" d="M46.32,39.73v-11.17h1.2v6.52l-.27-.13,5.62-6.39h1.5l-4.52,5.13.06-.85,4.73,6.9h-1.44l-3.81-5.5-1.88,2.13v3.38h-1.2Z"/>
    <path class="cls-1" d="M66.15,39.91c-.78,0-1.51-.14-2.18-.43-.67-.29-1.27-.69-1.78-1.2-.51-.52-.91-1.12-1.2-1.83s-.43-1.48-.43-2.32.14-1.61.43-2.32.69-1.31,1.2-1.83c.51-.51,1.1-.91,1.78-1.19.68-.28,1.4-.42,2.18-.42s1.51.14,2.18.43c.67.29,1.27.69,1.78,1.2.51.52.91,1.12,1.2,1.82.29.7.44,1.47.44,2.31s-.15,1.61-.44,2.32-.69,1.31-1.2,1.83c-.51.51-1.1.92-1.78,1.2-.68.28-1.4.43-2.18.43ZM66.15,38.78c.65,0,1.24-.12,1.78-.36.54-.24,1-.58,1.39-1,.39-.43.69-.92.91-1.49.21-.56.32-1.16.32-1.8s-.11-1.22-.32-1.78c-.22-.56-.52-1.06-.91-1.49-.39-.43-.85-.76-1.39-1-.53-.24-1.13-.36-1.78-.36s-1.24.12-1.78.36c-.54.24-1,.58-1.39,1-.39.43-.69.93-.91,1.49-.22.56-.32,1.15-.32,1.78s.11,1.24.32,1.8c.21.56.52,1.05.91,1.49.39.43.85.76,1.4,1,.54.24,1.13.36,1.77.36Z"/>
    <path class="cls-1" d="M79.26,39.73v-11.17h1.2v10.05h4.95v1.12h-6.15Z"/>
    <path class="cls-1" d="M92.43,39.73v-11.17h1.2v10.05h4.95v1.12h-6.15Z"/>
    <path class="cls-1" d="M105.6,39.73v-11.17h7.2v1.12h-6v3.88h5.7v1.12h-5.7v3.92h6v1.12h-7.2Z"/>
    <path class="cls-1" d="M125.08,39.91c-.79,0-1.51-.14-2.17-.43-.66-.29-1.23-.69-1.72-1.2-.49-.52-.86-1.12-1.13-1.82-.27-.7-.4-1.47-.4-2.31s.13-1.61.4-2.31c.27-.7.65-1.31,1.13-1.83.49-.52,1.06-.92,1.72-1.21.66-.28,1.38-.43,2.17-.43s1.44.13,2.05.4c.6.27,1.11.62,1.53,1.04.42.43.71.87.89,1.34l-1.08.52c-.28-.68-.71-1.21-1.29-1.6s-1.28-.58-2.1-.58-1.55.19-2.19.58c-.64.39-1.14.93-1.5,1.63-.36.7-.54,1.51-.54,2.44s.18,1.73.54,2.43c.36.7.86,1.24,1.5,1.63.64.38,1.37.58,2.19.58.73,0,1.39-.16,1.97-.48s1.05-.76,1.39-1.31c.34-.56.51-1.19.51-1.91v-.61l.54.54h-4.41v-1.05h5.07v.93c0,.73-.13,1.4-.39,2.02-.26.61-.62,1.15-1.08,1.6-.46.45-1,.8-1.61,1.04-.61.25-1.28.37-1.99.37Z"/>
    <path class="cls-1" d="M137.5,39.73v-11.17h1.2v11.17h-1.2Z"/>
    <path class="cls-1" d="M146.55,39.73v-11.17h7.2v1.12h-6v3.88h5.7v1.12h-5.7v3.92h6v1.12h-7.2Z"/>
    <path class="cls-1" d="M162.87,39.73v-10.05h-3.09v-1.12h7.35v1.12h-3.06v10.05h-1.2Z"/>
  </g>
</svg>